<?xml version="1.0" encoding="UTF-8"?>
<svg version="1.1" xmlns="http://www.w3.org/2000/svg" width="1024" height="1024">
<path d="M0 0 C337.92 0 675.84 0 1024 0 C1024 337.92 1024 675.84 1024 1024 C686.08 1024 348.16 1024 0 1024 C0 686.08 0 348.16 0 0 Z " fill="#BDDBF6" transform="translate(0,0)"/>
<path d="M0 0 C0.84939693 -0.00445784 1.69879386 -0.00891569 2.57393008 -0.01350862 C3.98181372 -0.01323207 3.98181372 -0.01323207 5.41813946 -0.01294994 C6.41114628 -0.01662663 7.4041531 -0.02030332 8.42725104 -0.02409142 C11.77648847 -0.03516179 15.12569491 -0.03897785 18.47494793 -0.04278088 C20.86791362 -0.04904325 23.26087834 -0.05568985 25.65384197 -0.0626936 C32.85372706 -0.08195101 40.05360962 -0.0925292 47.25351265 -0.10142139 C50.64637836 -0.10580481 54.0392425 -0.11117174 57.43210697 -0.11641026 C68.71699003 -0.13342929 80.00187212 -0.14792 91.28676605 -0.155159 C94.2165181 -0.15706884 97.14627013 -0.15898917 100.07602215 -0.16094494 C100.80418173 -0.16142868 101.53234131 -0.16191242 102.28256633 -0.16241082 C114.05895013 -0.17069799 125.83523191 -0.19600959 137.61157123 -0.22852562 C149.71074213 -0.26165944 161.80986134 -0.27961374 173.90907782 -0.28280324 C180.69864957 -0.28496326 187.48807288 -0.29363628 194.27760029 -0.31926441 C200.67241005 -0.34259648 207.06695351 -0.34675748 213.46179485 -0.33650303 C215.80261592 -0.33600873 218.14345032 -0.34229771 220.484231 -0.35605907 C250.44211665 -0.52224925 250.44211665 -0.52224925 261.9639616 10.13422108 C262.92689129 11.01400623 262.92689129 11.01400623 263.9092741 11.91156483 C268.54033925 16.35193906 272.5352583 21.21445999 276.54599285 26.21234608 C279.08994214 29.28645604 281.74516392 32.21593486 284.4639616 35.13422108 C287.9383566 38.86729016 291.26466637 42.65795414 294.4639616 46.63422108 C305.49031273 60.61720202 305.49031273 60.61720202 318.9639616 71.94672108 C319.73868816 72.45203358 320.51341473 72.95734608 321.31161785 73.47797108 C323.22050811 74.66997324 325.14739903 75.83332304 327.08505535 76.97797108 C337.95373125 83.43004723 348.79403946 90.62445465 352.9639616 103.13422108 C353.0674373 105.02872347 353.1125057 106.92663395 353.12509441 108.82391834 C353.13470196 109.99265995 353.1443095 111.16140156 353.15420818 112.36555958 C353.160583 114.26391811 353.160583 114.26391811 353.1670866 116.20062733 C353.17278667 117.50442844 353.17848675 118.80822956 353.18435955 120.1515398 C353.1948648 122.91636004 353.20070925 125.68115127 353.20419598 128.44598866 C353.20965216 131.96391678 353.23361954 135.48145225 353.26216793 138.99925804 C353.28545501 142.37887237 353.28725582 145.75843706 353.2920866 149.13812733 C353.3044334 150.38953007 353.3167802 151.64093281 353.32950115 152.93025684 C353.30479306 162.7341876 352.20596791 171.52390968 345.81943035 179.31390858 C338.96876812 186.03476879 330.68971815 189.00090929 321.1802702 189.18939686 C319.27493859 189.14709987 317.36966267 189.1022229 315.46444988 189.05487537 C305.77433973 188.64304505 305.77433973 188.64304505 297.34286785 192.65375233 C295.42745928 194.67999362 293.787016 196.85767505 292.1592741 199.11859608 C285.75474479 207.91627691 273.06754885 213.12140717 262.56161785 214.85297108 C250.13482702 216.19842813 239.35267201 214.33506006 228.9639616 207.13422108 C220.95786679 200.65997834 215.98855063 192.25716622 213.9639616 182.13422108 C213.9639616 179.16422108 213.9639616 176.19422108 213.9639616 173.13422108 C174.6939616 173.13422108 135.4239616 173.13422108 94.9639616 173.13422108 C94.3039616 176.10422108 93.6439616 179.07422108 92.9639616 182.13422108 C87.94189131 194.50004006 78.82874085 204.14609088 66.9639616 210.13422108 C54.20930168 215.25481894 40.58157103 217.89843135 27.4873991 212.38812733 C16.82032772 207.08761663 8.79689245 199.85957389 4.65536785 188.49359608 C3.1137396 183.23289854 2.87147059 178.59119086 2.9639616 173.13422108 C2.37494061 173.15516834 1.78591961 173.17611561 1.17904949 173.19769764 C-1.5383 173.28180798 -4.25537448 173.33317575 -6.9735384 173.38422108 C-7.8997298 173.4177367 -8.82592121 173.45125233 -9.78017902 173.48578358 C-16.23697558 173.57640528 -21.53869068 172.69807327 -27.0360384 169.13422108 C-31.85365225 164.08061292 -33.24214461 159.32821039 -33.16073322 152.56457996 C-32.96846148 148.81711612 -32.31559964 145.22132189 -31.5751009 141.54828358 C-31.42447193 140.76585285 -31.27384296 139.98342213 -31.11864948 139.17728138 C-30.64058864 136.70299977 -30.15116 134.23113874 -29.6610384 131.75922108 C-29.33994385 130.11093573 -29.01962555 128.46249897 -28.7001009 126.81390858 C-28.24612828 124.47233337 -27.79122978 122.1310036 -27.32989216 119.79086781 C-26.17292946 113.91583435 -25.09595197 108.02748476 -24.0360384 102.13422108 C-25.12478764 102.14421383 -25.12478764 102.14421383 -26.23553181 102.15440845 C-33.09133538 102.21463528 -39.94709916 102.26025419 -46.80309963 102.28965759 C-50.32747571 102.3052827 -53.85163234 102.32646251 -57.37588215 102.36053944 C-61.43189261 102.39951059 -65.4876742 102.4139563 -69.5438509 102.42718983 C-70.80343616 102.44267368 -72.06302143 102.45815754 -73.36077595 102.4741106 C-74.54154713 102.4743372 -75.72231831 102.47456379 -76.93887043 102.47479725 C-78.49107792 102.48479 -78.49107792 102.48479 -80.07464314 102.49498463 C-83.62283498 102.06273625 -85.99011573 100.98381801 -89.0360384 99.13422108 C-91.53635494 95.38374626 -91.57207394 93.57565842 -91.0360384 89.13422108 C-88.8632962 86.50405947 -87.08930052 84.66085214 -84.0360384 83.13422108 C-82.53961831 83.03573245 -81.03890591 82.99918663 -79.539258 82.99377918 C-78.59293507 82.98806904 -77.64661213 82.98235889 -76.67161274 82.97647572 C-75.10923122 82.97479893 -75.10923122 82.97479893 -73.51528645 82.97308826 C-71.87366535 82.96564091 -71.87366535 82.96564091 -70.1988802 82.9580431 C-66.5651662 82.94339442 -62.93149586 82.93661485 -59.29775715 82.93109608 C-56.7791058 82.92534672 -54.26045448 82.91958896 -51.74180317 82.91382313 C-47.13123195 82.90465089 -42.5206739 82.89835381 -37.91009587 82.89532638 C-31.12616739 82.89084739 -24.34244058 82.87330795 -17.55857342 82.84432578 C-11.68207986 82.8200924 -5.80565352 82.81238143 0.07088566 82.81065083 C2.57036912 82.80762009 5.06985165 82.79957749 7.56930256 82.78646564 C11.06469966 82.76943872 14.55960447 82.77127751 18.05502605 82.77777576 C19.09054104 82.76856098 20.12605602 82.7593462 21.19295025 82.74985218 C30.07510957 82.80166095 30.07510957 82.80166095 33.9639616 86.13422108 C36.455552 89.87160667 36.42189445 91.7075369 35.9639616 96.13422108 C33.82716875 99.52361663 32.7864849 100.86004664 28.9639616 102.13422108 C26.38065931 102.28744466 23.81903921 102.39128997 21.23349285 102.45062733 C20.48307217 102.47140842 19.73265148 102.49218952 18.95949078 102.51360035 C16.56523976 102.57892034 14.17088021 102.637899 11.7764616 102.69672108 C10.15210148 102.739923 8.52775228 102.78353784 6.90341473 102.82758045 C2.92370789 102.9345837 -1.05610797 103.03590045 -5.0360384 103.13422108 C-7.21991816 112.21853382 -9.10974866 121.32987283 -10.82583332 130.51215076 C-11.22849148 132.66064966 -11.63894687 134.80757128 -12.04971027 136.95453358 C-12.30994556 138.33725777 -12.56972821 139.72006724 -12.82900715 141.10297108 C-13.17741657 142.95051991 -13.17741657 142.95051991 -13.53286457 144.83539295 C-14.1616943 148.40186258 -14.1616943 148.40186258 -14.0360384 153.13422108 C-3.6410384 153.62922108 -3.6410384 153.62922108 6.9639616 154.13422108 C7.6239616 152.48422108 8.2839616 150.83422108 8.9639616 149.13422108 C11.08801541 145.96215128 13.51085356 143.05675102 15.9639616 140.13422108 C16.71806316 139.21576405 16.71806316 139.21576405 17.4873991 138.27875233 C21.10820523 134.26278208 25.30934726 131.51881592 29.9639616 128.82172108 C30.54540936 128.48390614 31.12685711 128.14609119 31.72592449 127.79803944 C42.71781205 121.69761132 56.49177359 121.28541734 68.6514616 123.93890858 C78.65113885 127.71482837 87.41150044 135.39367211 91.9639616 145.13422108 C92.49403186 146.51045149 93.01484335 147.89026745 93.52865887 149.27264881 C93.7977557 149.99516331 94.06685253 150.7176778 94.34410381 151.46208668 C94.54865688 152.01389103 94.75320995 152.56569538 94.9639616 153.13422108 C110.89727055 153.36795308 126.83011592 153.54422527 142.76471424 153.6523428 C150.16374463 153.70388155 157.56170919 153.7741254 164.96005535 153.88861561 C171.40950319 153.98837383 177.85817923 154.05282181 184.30837715 154.07510602 C187.72338447 154.08813149 191.1361842 154.11866921 194.55048275 154.19152164 C198.36558884 154.26404398 202.17611013 154.27411606 205.99179363 154.26947498 C207.12036282 154.30542774 208.248932 154.3413805 209.41170025 154.37842274 C212.56725615 154.33684034 214.99508195 154.21210119 217.9639616 153.13422108 C220.70733621 150.09383916 222.25192103 146.819877 223.9639616 143.13422108 C232.85574036 132.44712292 244.13110402 124.56969982 257.9639616 122.13422108 C274.90822702 120.86239248 291.34490253 123.05458233 307.9639616 126.13422108 C309.17761395 126.35867908 310.39126629 126.58313709 311.64169598 126.81439686 C319.09240003 128.20484515 326.5323251 129.64532037 333.9639616 131.13422108 C334.10943705 127.07209896 334.19809386 123.0106482 334.2764616 118.94672108 C334.31835613 117.7962328 334.36025066 116.64574451 334.40341473 115.46039295 C334.60862018 108.84309536 334.60862018 108.84309536 331.80380535 103.06000233 C327.89547605 100.40964972 323.96174759 97.94513284 319.88132 95.56650257 C317.21182782 93.96114891 314.72077138 92.2380456 312.24582195 90.34769154 C301.12702346 82.06434498 292.44082428 80.57337806 278.8077116 80.79828358 C276.92538647 80.78657167 275.04308863 80.76931807 273.16086102 80.74686146 C268.25815296 80.69973308 263.35769815 80.71247953 258.4549284 80.74322987 C250.58420322 80.78531072 242.71405117 80.74750227 234.8435545 80.68464756 C232.11490963 80.6735169 229.38813787 80.69639637 226.65964031 80.72348499 C210.96368711 80.75803735 210.96368711 80.75803735 203.9639616 75.13422108 C203.08675457 74.53327625 202.20954754 73.93233143 201.30575848 73.31317616 C200.60515301 72.76556629 199.90454754 72.21795643 199.1827116 71.65375233 C198.40411785 71.04724842 197.6255241 70.44074451 196.8233366 69.8158617 C196.04474285 69.1990453 195.2661491 68.58222889 194.4639616 67.94672108 C193.65443035 67.31830311 192.8448991 66.68988514 192.0108366 66.0424242 C186.0997449 61.40578767 186.0997449 61.40578767 184.9639616 59.13422108 C184.86718677 57.25989345 184.83320332 55.38213799 184.8311491 53.50531483 C184.82986004 52.38834217 184.82857098 51.27136951 184.82724285 50.1205492 C184.83111004 48.94943592 184.83497723 47.77832264 184.8389616 46.57172108 C184.83509441 45.39674061 184.83122723 44.22176014 184.82724285 43.0111742 C184.82917645 41.33764881 184.82917645 41.33764881 184.8311491 39.63031483 C184.83227703 38.60091785 184.83340496 37.57152088 184.83456707 36.51093006 C184.9639616 34.13422108 184.9639616 34.13422108 185.9639616 33.13422108 C188.17263991 33.03989122 190.38437681 33.01679677 192.59506512 33.02069569 C193.28771465 33.02054966 193.98036419 33.02040363 194.69400311 33.02025318 C196.99365606 33.02095233 199.29322897 33.02874479 201.59286785 33.03656483 C203.18327573 33.038429 204.77368417 33.03985291 206.36409283 33.04085255 C210.5579209 33.04467779 214.75171455 33.05450812 218.94552898 33.06555653 C223.22185074 33.07577051 227.49817804 33.08035014 231.77450848 33.08539295 C240.17100868 33.09613039 248.56748086 33.11320688 256.9639616 33.13422108 C255.89051766 31.85703297 254.8096012 30.58612352 253.72568035 29.31781483 C253.12457439 28.60939442 252.52346844 27.90097401 251.90414715 27.17108631 C247.08541069 22.11223161 241.68519073 19.27181095 234.71158123 19.01396656 C233.42362652 19.01618717 232.13567181 19.01840778 230.80868816 19.02069569 C229.73979603 19.02047665 229.73979603 19.02047665 228.64931011 19.02025318 C226.30103765 19.02094817 223.95284515 19.02872114 221.6045866 19.03656483 C219.97362594 19.03843048 218.34266472 19.03985369 216.7117033 19.04085255 C212.42421191 19.04466613 208.13675452 19.05448653 203.84927654 19.06555653 C199.47214499 19.07579555 195.09500793 19.08035551 190.71786785 19.08539295 C182.13321685 19.09610984 173.54859346 19.11317236 164.9639616 19.13422108 C164.96672698 19.70775192 164.96949236 20.28128277 164.97234154 20.87219334 C165.03859133 34.826741 165.08804577 48.78126113 165.11939812 62.73593235 C165.13486779 69.4843126 165.15595907 76.23258789 165.19027996 82.98090076 C165.22337205 89.49070564 165.24080419 96.00044231 165.24859333 102.51032734 C165.25414579 104.99668821 165.26498808 107.48304296 165.28115177 109.96935749 C165.30285918 113.44599389 165.30593127 116.9221765 165.30453777 120.39886951 C165.32071651 121.94822193 165.32071651 121.94822193 165.3372221 123.5288744 C165.33309811 124.47675831 165.32897411 125.42464222 165.32472515 126.40124989 C165.32749053 127.22348923 165.33025591 128.04572857 165.33310509 128.89288425 C164.87283784 131.68749928 163.86455432 133.06430462 161.9639616 135.13422108 C159.8780241 135.88422108 159.8780241 135.88422108 157.5889616 136.13422108 C156.83872723 136.23734608 156.08849285 136.34047108 155.3155241 136.44672108 C151.68409276 135.96413884 150.4213868 134.87396295 147.9639616 132.13422108 C147.21414493 128.50307953 147.33316588 124.91059539 147.39633465 121.21527576 C147.39523945 119.54653904 147.39523945 119.54653904 147.39412212 117.84409046 C147.39760756 114.16426429 147.43651683 110.48570133 147.47568035 106.80609608 C147.485005 104.25591187 147.49212275 101.70571871 147.49711895 99.15552235 C147.51426367 93.12760447 147.55367547 87.10022943 147.6038664 81.07252908 C147.659773 74.20926959 147.68724954 67.34598831 147.71234357 60.48255777 C147.76459242 46.36619429 147.85252629 32.25023253 147.9639616 18.13422108 C147.17912773 18.13790825 146.39429386 18.14159542 145.58567715 18.14539433 C126.49883864 18.2336885 107.41204084 18.29990296 88.32504177 18.34146976 C79.09474388 18.36210488 69.86458222 18.39024357 60.63437176 18.43597889 C52.59036617 18.47581765 44.54645922 18.50164698 36.50235772 18.51057506 C32.24206696 18.51579485 27.98205843 18.52808276 23.72185802 18.5571413 C19.71307114 18.58426379 15.7046831 18.59267259 11.69581318 18.5866518 C10.22359393 18.58775347 8.75136152 18.59572652 7.27922153 18.61104298 C5.27072931 18.63091711 3.26202373 18.62378177 1.25345135 18.61523914 C-0.43342981 18.6207699 -0.43342981 18.6207699 -2.15438938 18.62641239 C-5.71639734 18.01801443 -6.86336483 16.97255069 -9.0360384 14.13422108 C-10.35703591 9.67585449 -10.44542679 7.89653049 -8.2235384 3.75922108 C-5.42800424 0.40458009 -4.17745513 0.01014559 0 0 Z " fill="#112E56" transform="translate(367.0360383987427,315.86577892303467)"/>
<path d="M0 0 C7.59 0 15.18 0 23 0 C23 15.51 23 31.02 23 47 C39.83 47 56.66 47 74 47 C74 31.49 74 15.98 74 0 C81.59 0 89.18 0 97 0 C97 38.28 97 76.56 97 116 C89.41 116 81.82 116 74 116 C74 100.16 74 84.32 74 68 C57.17 68 40.34 68 23 68 C23 83.84 23 99.68 23 116 C15.41 116 7.82 116 0 116 C0 77.72 0 39.44 0 0 Z " fill="#112E56" transform="translate(170,562)"/>
<path d="M0 0 C0.83184814 0.00942627 1.66369629 0.01885254 2.52075195 0.02856445 C12.81901071 0.28151121 21.60323273 2.84815122 29.28515625 9.97265625 C36.9525757 18.24291949 37.02511704 27.15547495 37.07421875 37.9375 C37.09109005 39.33855742 37.10924354 40.73959993 37.12861633 42.140625 C37.17585717 45.80327696 37.20583308 49.46586846 37.23205566 53.12872314 C37.26199312 56.87630145 37.30847765 60.62367189 37.35351562 64.37109375 C37.43925343 71.70564314 37.50519659 79.04016324 37.5625 86.375 C30.3025 86.375 23.0425 86.375 15.5625 86.375 C15.5625 84.395 15.5625 82.415 15.5625 80.375 C14.80066406 80.88160156 14.80066406 80.88160156 14.0234375 81.3984375 C13.33507812 81.84445312 12.64671875 82.29046875 11.9375 82.75 C11.26460938 83.19085937 10.59171875 83.63171875 9.8984375 84.0859375 C0.39947022 89.32784252 -12.96570746 89.11004734 -23.26953125 86.34765625 C-30.01306443 83.28549842 -34.33411945 79.12147947 -37.4375 72.375 C-39.39439889 66.44276564 -39.68284887 58.83182039 -37.56640625 52.95703125 C-36.34368441 50.88441751 -35.04583317 49.16340101 -33.4375 47.375 C-32.69306641 46.54548828 -32.69306641 46.54548828 -31.93359375 45.69921875 C-20.15802911 34.26415237 0.19664518 35.05613136 15.5625 33.375 C14.25721648 26.42546586 14.25721648 26.42546586 9.5625 21.375 C4.96474455 18.67043797 -0.26116993 18.71861144 -5.4375 19.375 C-11.33110534 22.10352099 -11.9636901 24.29583267 -15.4375 30.375 C-22.0375 30.375 -28.6375 30.375 -35.4375 30.375 C-35.4375 21.33841625 -33.77262896 15.88134866 -27.4375 9.375 C-19.00371024 2.70958551 -10.71984295 -0.1888334 0 0 Z " fill="#102C54" transform="translate(319.4375,591.625)"/>
<path d="M0 0 C7.59 0 15.18 0 23 0 C23.33 21.12 23.66 42.24 24 64 C31.13250178 56.07697787 31.13250178 56.07697787 38.171875 48.078125 C41.07071731 44.78285981 44.02907691 41.54150298 46.984375 38.296875 C49.01283699 36.13223936 49.01283699 36.13223936 50.23852539 33.88085938 C52 32 52 32 54.8190918 31.54589844 C56.49225464 31.57731934 56.49225464 31.57731934 58.19921875 31.609375 C59.40771484 31.62226562 60.61621094 31.63515625 61.86132812 31.6484375 C63.12396484 31.68195312 64.38660156 31.71546875 65.6875 31.75 C66.96173828 31.76804687 68.23597656 31.78609375 69.54882812 31.8046875 C72.69996841 31.85189559 75.8496114 31.91773616 79 32 C77.66363695 34.94895082 76.17858069 37.09700119 73.9453125 39.43359375 C73.03108521 40.39821533 73.03108521 40.39821533 72.09838867 41.38232422 C71.12156128 42.39963623 71.12156128 42.39963623 70.125 43.4375 C68.76906299 44.86544092 67.41360123 46.29383325 66.05859375 47.72265625 C65.37909668 48.43695801 64.69959961 49.15125977 63.99951172 49.88720703 C61.03235707 53.02246421 58.10770306 56.19606204 55.1875 59.375 C50.23772936 64.76227064 50.23772936 64.76227064 48 67 C48.21142677 71.64325718 50.67268392 74.73530398 53.375 78.3125 C54.29050532 79.55753409 55.20451222 80.80367111 56.1171875 82.05078125 C56.5925293 82.69740723 57.06787109 83.3440332 57.55761719 84.01025391 C59.93840119 87.29451078 62.21665197 90.64761699 64.5 94 C68.58245225 99.9790475 72.74631561 105.89228052 77.00390625 111.74804688 C80 115.89460146 80 115.89460146 80 117 C57.48400386 120.3255069 57.48400386 120.3255069 50.45996094 115.11621094 C46.10048777 110.1794834 43.11909739 104.48749437 40.27050781 98.58203125 C38.6307506 95.24958077 36.69330068 92.26967356 34.625 89.1875 C33.74640427 87.79392717 32.87068206 86.39853082 32 85 C27.91558459 88.0795934 24.52449602 90.91016871 23.24609375 96.00390625 C22.99186272 99.35733459 22.94222825 102.63768408 23 106 C22.98839844 107.15628906 22.97679687 108.31257812 22.96484375 109.50390625 C22.94143913 112.33586503 22.96588133 115.16815003 23 118 C15.41 118 7.82 118 0 118 C0 79.06 0 40.12 0 0 Z " fill="#122F57" transform="translate(779,561)"/>
<path d="M0 0 C7.59 0 15.18 0 23 0 C23 28.05 23 56.1 23 85 C15.74 85 8.48 85 1 85 C0.505 81.535 0.505 81.535 0 78 C-0.44988281 78.39832031 -0.89976562 78.79664063 -1.36328125 79.20703125 C-8.77480491 85.31151266 -17.01582267 87.64496876 -26.59375 87.28125 C-34.14809644 86.39827444 -40.62856013 83.42786256 -46 78 C-50.88653474 71.27570328 -53.13012243 66.06121373 -53.11352539 57.76269531 C-53.11344986 56.50169006 -53.11337433 55.24068481 -53.11329651 53.94146729 C-53.10819028 52.57035279 -53.1029743 51.19923869 -53.09765625 49.828125 C-53.09579028 48.42136689 -53.09436722 47.01460812 -53.09336853 45.60784912 C-53.08955744 41.91219273 -53.0797392 38.21657587 -53.06866455 34.52093506 C-53.05842014 30.74703506 -53.05386442 26.97312865 -53.04882812 23.19921875 C-53.03811563 15.79945909 -53.02053027 8.39974013 -53 1 C-46.07 1 -39.14 1 -32 1 C-31.98541748 2.56363281 -31.97083496 4.12726562 -31.95581055 5.73828125 C-31.89767219 11.5606123 -31.82043947 17.38256291 -31.73754883 23.20458984 C-31.70437264 25.72047738 -31.67631816 28.23643803 -31.65356445 30.75244141 C-31.61988482 34.37694344 -31.56756009 38.00077979 -31.51171875 41.625 C-31.50532883 42.74302002 -31.4989389 43.86104004 -31.49235535 45.01293945 C-31.35496963 52.37354241 -31.04769792 59.02849453 -25.5 64.4375 C-21.24893605 67.09441497 -17.94779247 67.32985283 -13 67 C-8.3863567 65.43605312 -5.0925748 63.80624591 -2 60 C-0.96733518 56.90200554 -0.84490475 54.67740727 -0.79467773 51.42700195 C-0.77473251 50.28604568 -0.75478729 49.14508942 -0.73423767 47.96955872 C-0.71752518 46.73823715 -0.70081268 45.50691559 -0.68359375 44.23828125 C-0.66281265 42.97735153 -0.64203156 41.71642181 -0.62062073 40.4172821 C-0.56627878 37.06854542 -0.51603834 33.71979795 -0.46777344 30.37097168 C-0.41749643 26.95233771 -0.36184276 23.53379174 -0.30664062 20.11523438 C-0.19946496 13.4102242 -0.09819188 6.70514752 0 0 Z " fill="#122E56" transform="translate(658,593)"/>
<path d="M0 0 C30.36 0 60.72 0 92 0 C92 6.93 92 13.86 92 21 C80.78 21 69.56 21 58 21 C58 52.68 58 84.36 58 117 C50.41 117 42.82 117 35 117 C35 85.32 35 53.64 35 21 C23.45 21 11.9 21 0 21 C0 14.07 0 7.14 0 0 Z " fill="#112F57" transform="translate(450,562)"/>
<path d="M0 0 C7.9774741 5.5722806 13.09118191 12.22508073 15.7734375 21.64453125 C15.7734375 22.96453125 15.7734375 24.28453125 15.7734375 25.64453125 C8.1834375 25.64453125 0.5934375 25.64453125 -7.2265625 25.64453125 C-8.2165625 23.66453125 -9.2065625 21.68453125 -10.2265625 19.64453125 C-15.54482358 15.54503833 -19.5108678 14.09406447 -26.2265625 14.64453125 C-32.39575539 16.76231388 -36.23439352 19.86229738 -39.3046875 25.69140625 C-40.63492302 29.9526692 -40.59502943 34.01780784 -40.6015625 38.45703125 C-40.62605469 39.32134766 -40.65054687 40.18566406 -40.67578125 41.07617188 C-40.70300493 47.08806885 -39.65889795 51.64141521 -36.2265625 56.64453125 C-30.92423375 61.56812223 -27.3583806 62.00728544 -20.2734375 61.9140625 C-15.70143247 61.5096159 -13.80604415 60.56655708 -10.2265625 57.64453125 C-9.52873343 56.28251965 -8.85828246 54.90624878 -8.2109375 53.51953125 C-6.60165376 50.86347294 -5.88877185 49.82630618 -2.85717773 48.99414062 C-0.00547138 48.85657293 2.73811304 48.94562343 5.5859375 49.14453125 C6.56498047 49.180625 7.54402344 49.21671875 8.55273438 49.25390625 C10.96365869 49.3479911 13.36652187 49.47921674 15.7734375 49.64453125 C14.57149951 59.37737478 11.80695151 67.25523585 4.3984375 74.01953125 C-6.13764093 82.23488756 -18.22943621 83.83494502 -31.2265625 82.64453125 C-42.56905787 80.50419597 -51.61090243 74.03188988 -58.2265625 64.64453125 C-65.48144416 52.76855336 -66.18363794 37.59670463 -63.5390625 24.1484375 C-62.62926428 21.47590524 -61.58712038 19.11557562 -60.2265625 16.64453125 C-59.80246094 15.86207031 -59.37835938 15.07960938 -58.94140625 14.2734375 C-53.21085644 4.80765467 -45.02762758 -1.86586028 -34.35888672 -4.88378906 C-22.91499091 -7.41523018 -9.98204104 -6.07678639 0 0 Z " fill="#102D55" transform="translate(434.2265625,597.35546875)"/>
<path d="M0 0 C6.70456906 4.79406354 11.73548215 10.43827879 14.3125 18.3125 C14.8075 21.7775 14.8075 21.7775 15.3125 25.3125 C7.7225 25.3125 0.1325 25.3125 -7.6875 25.3125 C-8.6775 23.3325 -9.6675 21.3525 -10.6875 19.3125 C-15.47579562 15.62152213 -19.37548451 13.87857528 -25.49609375 13.96875 C-30.99989771 14.8320918 -34.79638944 18.17005057 -38.125 22.4375 C-42.43046171 30.35954955 -41.86846832 41.70645762 -40.0390625 50.390625 C-38.33157624 54.6812315 -35.82546311 58.04798842 -31.875 60.5 C-26.63785939 62.44522366 -20.85889879 62.23917006 -15.53515625 60.68359375 C-11.80875266 58.86523926 -10.34575015 56.77321114 -8.671875 53.1875 C-7.06259126 50.53144169 -6.34970935 49.49427493 -3.31811523 48.66210938 C-0.46640888 48.52454168 2.27717554 48.61359218 5.125 48.8125 C6.10404297 48.84859375 7.08308594 48.8846875 8.09179688 48.921875 C10.50272119 49.01595985 12.90558437 49.14718549 15.3125 49.3125 C14.31119118 56.79542478 12.87960341 62.24535089 8.3125 68.3125 C7.260625 69.859375 7.260625 69.859375 6.1875 71.4375 C1.04545345 77.37437394 -7.9643554 81.51269214 -15.6875 82.3125 C-29.45014121 83.25152882 -40.73868161 81.27438726 -51.6875 72.3125 C-56.96828602 67.36633805 -60.32951767 62.13761469 -62.6875 55.3125 C-63.02587891 54.3534375 -63.02587891 54.3534375 -63.37109375 53.375 C-67.04538504 40.40095074 -65.63901781 25.62955719 -59.3671875 13.828125 C-53.73931172 4.66360597 -45.21607271 -2.22847582 -34.79248047 -5.23388672 C-23.13995732 -7.74495005 -10.11949805 -6.21046118 0 0 Z " fill="#102D55" transform="translate(756.6875,597.6875)"/>
<path d="M0 0 C0 7.26 0 14.52 0 22 C-3.2175 22.0928125 -3.2175 22.0928125 -6.5 22.1875 C-14.51601821 22.76238615 -18.84748184 24.76452083 -24.375 30.4375 C-28.27965068 36.59483377 -28.33032149 42.57849122 -28.4140625 49.6484375 C-28.43342865 50.66096588 -28.4527948 51.67349426 -28.4727478 52.71670532 C-28.53230723 55.93605242 -28.57883448 59.15543574 -28.625 62.375 C-28.66320151 64.56381728 -28.7022545 66.75261988 -28.7421875 68.94140625 C-28.83958467 74.29419244 -28.91934162 79.64683091 -29 85 C-35.93 85 -42.86 85 -50 85 C-50 57.28 -50 29.56 -50 1 C-43.07 1 -36.14 1 -29 1 C-28.67 4.3 -28.34 7.6 -28 11 C-27.43152344 10.45730469 -26.86304688 9.91460938 -26.27734375 9.35546875 C-17.58016285 1.29714588 -11.79649977 -0.39763482 0 0 Z " fill="#102C54" transform="translate(595,593)"/>
<path d="M0 0 C4.9374405 3.00612874 8.17340144 7.15149039 10.734375 12.2734375 C12.48386644 21.99283441 11.23415474 30.70157698 5.53125 38.953125 C0.54910509 44.93562184 -4.32250375 47.93823042 -11.703125 50.3984375 C-21.87077929 51.1865276 -28.69726067 50.62561182 -36.515625 44.0234375 C-41.64657237 37.86630066 -42.25210955 32.67227498 -42.0390625 24.86328125 C-41.11559929 15.33872468 -35.67302884 8.6888853 -28.703125 2.3984375 C-19.73394229 -4.05358748 -10.00187664 -4.49128856 0 0 Z " fill="#BFDDF5" transform="translate(642.703125,460.6015625)"/>
<path d="M0 0 C1.02867187 -0.01740234 1.02867187 -0.01740234 2.078125 -0.03515625 C8.94396273 0.00415198 14.13145386 2.63457349 19 7.375 C23.5826652 13.13691781 23.65188672 19.54165513 23.453125 26.67578125 C22.79601672 32.04027731 21.01648978 35.94192662 18 40.375 C17.42378906 41.24898438 17.42378906 41.24898438 16.8359375 42.140625 C13.06914061 47.21426979 7.26580812 51.25731531 1 52.375 C-7.95932107 53.16486458 -15.67704296 53.0348679 -23 47.375 C-27.64772805 43.13791459 -29.2860223 38.85798394 -29.70678711 32.5871582 C-29.90455231 23.03521069 -27.35803732 16.03600248 -20.80859375 9.03125 C-14.39500095 3.04088921 -8.94886113 -0.15139051 0 0 Z " fill="#BEDCF5" transform="translate(419,458.625)"/>
<path d="M0 0 C0.95830215 -0.0071553 1.91660431 -0.01431061 2.90394592 -0.02168274 C6.06731027 -0.03857249 9.22925804 -0.01916486 12.39257812 0.00219727 C14.59305946 0.0013686 16.79354074 -0.0010907 18.99401855 -0.00511169 C23.60411223 -0.0079699 28.21372012 0.00673428 32.82373047 0.03417969 C38.73217624 0.06826198 44.63975332 0.06224418 50.54824066 0.04351711 C55.091606 0.03294714 59.6347693 0.04188503 64.17811584 0.05690193 C66.35660706 0.06208419 68.53511936 0.06160142 70.71360779 0.05535698 C73.75875191 0.04990499 76.80265369 0.0702803 79.84765625 0.09765625 C80.74754776 0.09113037 81.64743927 0.08460449 82.57460022 0.07788086 C86.71940968 0.14122143 88.87619258 0.28687711 92.45983887 2.53944397 C94.80857174 5.04085762 95.35709674 6.03052103 95.73632812 9.44360352 C95.35218455 13.36186801 94.13126496 14.84403619 91.42382812 17.63110352 C87.97252503 19.35675506 83.98826338 18.8061989 80.18823242 18.82397461 C79.23036835 18.8321521 78.27250427 18.84032959 77.28561401 18.84875488 C74.10643138 18.87362761 70.92729344 18.89012908 67.74804688 18.90454102 C66.66389811 18.90986469 65.57974934 18.91518837 64.46274757 18.92067337 C58.72525361 18.94741218 52.98778148 18.9667854 47.25024414 18.98120117 C41.31819195 18.99785739 35.38669441 19.04264169 29.4548521 19.09357262 C24.89868008 19.12719486 20.34264056 19.13877309 15.78635597 19.14442825 C13.59944224 19.15115382 11.41253762 19.16640954 9.22574425 19.19031906 C6.16590261 19.22186712 3.10756836 19.22202274 0.04760742 19.21459961 C-0.85699722 19.23100494 -1.76160187 19.24741028 -2.69361877 19.26431274 C-7.18783073 19.21964641 -8.99265741 19.09020663 -12.63615417 16.22354126 C-14.50987384 13.71969732 -15.2628985 12.69274407 -15.20117188 9.63110352 C-15.2140625 8.99172852 -15.22695313 8.35235352 -15.24023438 7.69360352 C-12.78005941 0.0525895 -6.80769793 -0.08845173 0 0 Z " fill="#0F2B53" transform="translate(324.576171875,357.368896484375)"/>
<path d="M0 0 C11.34556075 0.37016511 21.96942116 2.47166903 33 5 C33.6883333 17.88712896 33.6883333 17.88712896 31.25 21.6875 C28.56317701 24.44895696 26.58214449 25.84313493 22.70996094 26.22705078 C21.89301758 26.21657715 21.07607422 26.20610352 20.234375 26.1953125 C19.34492187 26.18886719 18.45546875 26.18242187 17.5390625 26.17578125 C16.61867188 26.15902344 15.69828125 26.14226562 14.75 26.125 C13.81414063 26.11597656 12.87828125 26.10695313 11.9140625 26.09765625 C9.60911343 26.07413636 7.3046884 26.04126853 5 26 C4.96132813 24.53240234 4.96132813 24.53240234 4.921875 23.03515625 C4.61760845 16.00244992 4.22629984 9.96372745 0.83984375 3.63671875 C0 2 0 2 0 0 Z " fill="#BFDDF4" transform="translate(669,460)"/>
<path d="M0 0 C30.36 0 60.72 0 92 0 C92 6.93 92 13.86 92 21 C80.78 21 69.56 21 58 21 C58 52.68 58 84.36 58 117 C50.41 117 42.82 117 35 117 C35 85.32 35 53.64 35 21 C23.45 21 11.9 21 0 21 C0 14.07 0 7.14 0 0 Z M2 1 C2 6.94 2 12.88 2 19 C18.335 19.495 18.335 19.495 35 20 C35.33 51.35 35.66 82.7 36 115 C42.6 115 49.2 115 56 115 C56.02505615 112.15769775 56.0501123 109.31539551 56.07592773 106.38696289 C56.1592269 97.01912367 56.24793493 87.65134139 56.33933926 78.28357792 C56.39461585 72.6012629 56.44804329 66.91894278 56.49731445 61.23657227 C56.54488831 55.75766291 56.59722831 50.27881832 56.65294075 44.79998589 C56.67339603 42.70472249 56.69210374 40.60944132 56.70907402 38.5141468 C56.73304804 35.59017602 56.76311178 32.66632889 56.79467773 29.74243164 C56.8004332 28.8670575 56.80618866 27.99168335 56.81211853 27.08978271 C56.88594784 21.11405216 56.88594784 21.11405216 58 20 C60.37338639 19.84028023 62.72118272 19.7407567 65.09765625 19.68359375 C65.80651474 19.66281265 66.51537323 19.64203156 67.24571228 19.62062073 C69.51787305 19.55505402 71.79015264 19.4962077 74.0625 19.4375 C75.59962183 19.39432151 77.1367315 19.35070745 78.67382812 19.30664062 C82.44909856 19.19854266 86.22445466 19.09952363 90 19 C90 13.06 90 7.12 90 1 C60.96 1 31.92 1 2 1 Z " fill="#0B204A" transform="translate(450,562)"/>
<path d="M0 0 C0.624 11.68266667 0.624 11.68266667 -1.6875 16.5625 C-7.02081857 22.18410606 -10.63999834 24.1063083 -18.3125 24.3125 C-23.73260038 24.27622088 -26.66261658 23.20589209 -31 20 C-32.13749887 17.72500225 -32.29866796 16.15763289 -32.4375 13.625 C-32.49808594 12.85414063 -32.55867188 12.08328125 -32.62109375 11.2890625 C-31.85076926 8.45000495 -30.58651754 7.38706068 -28.08813477 5.90185547 C-23.52478321 3.93096565 -18.61143472 3.16801439 -13.75 2.25 C-12.09871094 1.91935547 -12.09871094 1.91935547 -10.4140625 1.58203125 C-2.41546972 0 -2.41546972 0 0 0 Z " fill="#BFDCF3" transform="translate(335,639)"/>
<path d="M0 0 C7.59 0 15.18 0 23 0 C23 38.28 23 76.56 23 116 C15.41 116 7.82 116 0 116 C0 100.16 0 84.32 0 68 C0.33 68 0.66 68 1 68 C1 83.51 1 99.02 1 115 C7.6 115 14.2 115 21 115 C21 77.71 21 40.42 21 2 C14.4 2 7.8 2 1 2 C1 17.18 1 32.36 1 48 C-16.16 48 -33.32 48 -51 48 C-51 47.67 -51 47.34 -51 47 C-34.17 47 -17.34 47 0 47 C0 31.49 0 15.98 0 0 Z " fill="#05183F" transform="translate(244,562)"/>
<path d="M0 0 C0.33 0 0.66 0 1 0 C1 2.97 1 5.94 1 9 C10.405 8.505 10.405 8.505 20 8 C20 7.34 20 6.68 20 6 C20.66 6 21.32 6 22 6 C22.33 6.99 22.66 7.98 23 9 C18.2012189 12.84912758 13.52899131 12.34850223 7.6875 12.1875 C6.29047852 12.16719727 6.29047852 12.16719727 4.86523438 12.14648438 C2.57622354 12.11126882 0.28841542 12.06202099 -2 12 C-1.85962479 10.18706911 -1.71255111 8.3746557 -1.5625 6.5625 C-1.48128906 5.55316406 -1.40007813 4.54382813 -1.31640625 3.50390625 C-1 1 -1 1 0 0 Z " fill="#BED5E4" transform="translate(676,474)"/>
<path d="M0 0 C2.64 0 5.28 0 8 0 C8 7.26 8 14.52 8 22 C3.05 22.33 -1.9 22.66 -7 23 C-7 22.34 -7 21.68 -7 21 C-3 20 -3 20 6 20 C6 13.73 6 7.46 6 1 C4.02 1 2.04 1 0 1 C0 0.67 0 0.34 0 0 Z " fill="#0F254D" transform="translate(587,593)"/>
<path d="M0 0 C6.93 0 13.86 0 21 0 C20.67 1.98 20.34 3.96 20 6 C19.67 4.68 19.34 3.36 19 2 C9.595 2.495 9.595 2.495 0 3 C0 2.01 0 1.02 0 0 Z " fill="#22355B" transform="translate(751,647)"/>
<path d="M0 0 C6.93 0 13.86 0 21 0 C20.67 1.98 20.34 3.96 20 6 C19.67 4.68 19.34 3.36 19 2 C9.595 2.495 9.595 2.495 0 3 C0 2.01 0 1.02 0 0 Z " fill="#233559" transform="translate(429,647)"/>
<path d="M0 0 C2.2248543 2.2248543 2.59698555 3.55214911 3.5625 6.5 C5.67431419 12.04552734 8.98594326 15.73996095 13.07421875 19.96875 C15 22 15 22 16 24 C12.4389135 22.51154587 10.3579126 20.4999313 7.8125 17.625 C6.77029297 16.46871094 6.77029297 16.46871094 5.70703125 15.2890625 C4.06503662 13.08721158 3.40998052 11.68017114 3 9 C2.34 9 1.68 9 1 9 C-0.4783226 6.04335481 -0.06032783 3.25770263 0 0 Z " fill="#CEE6F3" transform="translate(581,500)"/>
<path d="M0 0 C6.6 0 13.2 0 20 0 C20 0.33 20 0.66 20 1 C18.22496094 1.18175781 18.22496094 1.18175781 16.4140625 1.3671875 C8.17914353 2.23264631 0.08889986 3.17347423 -8 5 C-5.4345406 2.4345406 -3.52313332 2.45953913 0 2 C0 1.34 0 0.68 0 0 Z " fill="#DCF0FA" transform="translate(409,437)"/>
<path d="M0 0 C0.33 0 0.66 0 1 0 C1 2.97 1 5.94 1 9 C7.27 8.67 13.54 8.34 20 8 C20 7.34 20 6.68 20 6 C20.66 6 21.32 6 22 6 C22.33 6.99 22.66 7.98 23 9 C18.22907044 10.23402862 13.57530554 10.11265112 8.6875 10.0625 C7.43356445 10.05573242 7.43356445 10.05573242 6.15429688 10.04882812 C4.10283351 10.03710548 2.05140727 10.01917203 0 10 C0 6.7 0 3.4 0 0 Z " fill="#B1D1ED" transform="translate(676,474)"/>
<path d="M0 0 C0.66 1.32 1.32 2.64 2 4 C1.44570313 4.38671875 0.89140625 4.7734375 0.3203125 5.171875 C-0.76636719 5.95304687 -0.76636719 5.95304687 -1.875 6.75 C-2.59429687 7.26046875 -3.31359375 7.7709375 -4.0546875 8.296875 C-6.08570565 10.07503547 -6.97855012 11.52701607 -8 14 C-8.66 13.67 -9.32 13.34 -10 13 C-3.84965831 3.40546697 -3.84965831 3.40546697 0 0 Z " fill="#CEE7F7" transform="translate(402,464)"/>
<path d="M0 0 C0.33 0.66 0.66 1.32 1 2 C-1 4 -3 6 -5 8 C-5.66 8 -6.32 8 -7 8 C-8.80060998 9.55683115 -8.80060998 9.55683115 -10.625 11.5 C-11.25664062 12.1496875 -11.88828125 12.799375 -12.5390625 13.46875 C-13.02117187 13.9740625 -13.50328125 14.479375 -14 15 C-14 12 -14 12 -12.20703125 9.84375 C-11.41683594 9.0703125 -10.62664062 8.296875 -9.8125 7.5 C-9.03519531 6.7265625 -8.25789063 5.953125 -7.45703125 5.15625 C-5.08989911 3.07889397 -2.74852719 1.52316249 0 0 Z " fill="#071840" transform="translate(395,446)"/>
<path d="M0 0 C0.99 0.66 1.98 1.32 3 2 C2.07038578 3.15224028 1.1309875 4.29659176 0.1875 5.4375 C-0.59560547 6.39462891 -0.59560547 6.39462891 -1.39453125 7.37109375 C-3 9 -3 9 -6 10 C-5.58578031 5.16743695 -3.53586014 3.17320782 0 0 Z " fill="#C9E4F6" transform="translate(401,614)"/>
<path d="M0 0 C2.31 0 4.62 0 7 0 C7 0.66 7 1.32 7 2 C10.465 1.505 10.465 1.505 14 1 C13.67 1.99 13.34 2.98 13 4 C11.20741442 3.91306859 9.41584856 3.80489496 7.625 3.6875 C6.62726562 3.62949219 5.62953125 3.57148438 4.6015625 3.51171875 C3.74304688 3.34285156 2.88453125 3.17398437 2 3 C1.34 2.01 0.68 1.02 0 0 Z " fill="#B9D5EB" transform="translate(647,436)"/>
<path d="M0 0 C0.99 0.33 1.98 0.66 3 1 C3 5.29 3 9.58 3 14 C2.67 12.68 2.34 11.36 2 10 C1.34 10 0.68 10 0 10 C0 6.7 0 3.4 0 0 Z " fill="#1B365E" transform="translate(598,484)"/>
<path d="M0 0 C0.99 0 1.98 0 3 0 C2.38801624 3.43950364 1.07941153 5.51564485 -1.0625 8.25 C-1.61035156 8.95640625 -2.15820312 9.6628125 -2.72265625 10.390625 C-3.14417969 10.92171875 -3.56570313 11.4528125 -4 12 C-4.33 11.34 -4.66 10.68 -5 10 C-4.00390625 8.125 -4.00390625 8.125 -2.5625 6 C-0.53799842 3.23618746 -0.53799842 3.23618746 0 0 Z " fill="#CEE7F4" transform="translate(379,601)"/>
<path d="M0 0 C1.93166016 0.01740234 1.93166016 0.01740234 3.90234375 0.03515625 C5.19269531 0.04417969 6.48304688 0.05320312 7.8125 0.0625 C8.81152344 0.07410156 9.81054688 0.08570313 10.83984375 0.09765625 C10.83984375 0.42765625 10.83984375 0.75765625 10.83984375 1.09765625 C9.79183594 1.18853516 9.79183594 1.18853516 8.72265625 1.28125 C7.81257813 1.36503906 6.9025 1.44882812 5.96484375 1.53515625 C5.05992187 1.61636719 4.155 1.69757813 3.22265625 1.78125 C0.82873514 1.9675491 0.82873514 1.9675491 -1.16015625 3.09765625 C-2.15015625 2.43765625 -3.14015625 1.77765625 -4.16015625 1.09765625 C-3.16015625 0.09765625 -3.16015625 0.09765625 0 0 Z " fill="#DDEFF7" transform="translate(414.16015625,458.90234375)"/>
</svg>
